<?xml version="1.0" encoding="UTF-8"?>
<svg xmlns="http://www.w3.org/2000/svg" viewBox="1740 860 90 160" width="180" height="320">
  <path fill="#AA7444" d="M 1811.09375 895.039062 C 1811.160156 894.992188 1811.226562 894.949219 1811.292969 894.902344 C 1811.28125 894.914062 1811.265625 894.925781 1811.253906 894.9375 C 1811.195312 894.976562 1811.136719 895.015625 1811.078125 895.058594 C 1811.085938 895.050781 1811.089844 895.042969 1811.09375 895.039062 M 1762.644531 872.476562 C 1762.757812 872.429688 1762.871094 872.390625 1762.984375 872.355469 C 1762.976562 872.367188 1762.96875 872.378906 1762.960938 872.390625 C 1762.929688 872.4375 1762.902344 872.484375 1762.875 872.527344 C 1762.78125 872.574219 1762.6875 872.617188 1762.59375 872.664062 C 1762.589844 872.664062 1762.589844 872.664062 1762.585938 872.667969 C 1762.59375 872.605469 1762.609375 872.546875 1762.625 872.488281 C 1762.632812 872.484375 1762.636719 872.480469 1762.644531 872.476562 M 1751.601562 905.886719 C 1751.636719 905.867188 1751.671875 905.851562 1751.707031 905.832031 C 1751.707031 905.847656 1751.703125 905.859375 1751.699219 905.871094 C 1751.691406 905.933594 1751.683594 906.101562 1751.6875 906.199219 C 1751.546875 906.328125 1751.40625 906.457031 1751.269531 906.589844 C 1751.273438 906.566406 1751.277344 906.542969 1751.28125 906.519531 C 1751.300781 906.449219 1751.320312 906.378906 1751.339844 906.308594 C 1751.378906 906.234375 1751.417969 906.160156 1751.457031 906.082031 C 1751.503906 906.015625 1751.554688 905.953125 1751.601562 905.886719 M 1796.425781 874.726562 C 1796.421875 874.777344 1796.414062 874.828125 1796.40625 874.882812 C 1796.375 874.875 1796.339844 874.867188 1796.308594 874.859375 C 1796.304688 874.753906 1796.292969 874.644531 1796.273438 874.539062 C 1796.273438 874.527344 1796.269531 874.515625 1796.265625 874.503906 C 1796.316406 874.574219 1796.371094 874.644531 1796.421875 874.714844 C 1796.421875 874.71875 1796.425781 874.722656 1796.425781 874.726562 M 1809.414062 921.941406 C 1809.503906 921.800781 1809.59375 921.660156 1809.675781 921.515625 C 1809.691406 921.492188 1809.710938 921.464844 1809.726562 921.441406 C 1809.71875 921.453125 1809.714844 921.464844 1809.710938 921.472656 C 1809.636719 921.601562 1809.566406 921.730469 1809.496094 921.859375 C 1809.492188 921.863281 1809.492188 921.863281 1809.488281 921.867188 C 1809.464844 921.890625 1809.4375 921.917969 1809.414062 921.941406 M 1768.0625 888.046875 C 1768.238281 888.300781 1768.417969 888.550781 1768.59375 888.800781 C 1767.507812 889.300781 1766.480469 889.941406 1765.578125 890.722656 C 1765.007812 891.21875 1764.496094 891.769531 1764.039062 892.371094 C 1763.777344 892.71875 1763.542969 893.082031 1763.328125 893.460938 C 1763.253906 893.59375 1763.183594 893.726562 1763.113281 893.867188 C 1762.859375 894.242188 1762.628906 894.628906 1762.445312 895.046875 C 1762.445312 895.046875 1762.441406 895.046875 1762.441406 895.046875 C 1762.085938 895.695312 1761.835938 896.398438 1761.789062 897.136719 C 1761.777344 897.328125 1761.78125 897.515625 1761.796875 897.699219 C 1761.792969 897.746094 1761.789062 897.792969 1761.785156 897.839844 C 1761.773438 898.058594 1761.78125 898.28125 1761.800781 898.5 C 1761.335938 898.492188 1760.871094 898.484375 1760.40625 898.476562 C 1760.085938 898.46875 1759.761719 898.460938 1759.4375 898.453125 C 1759.105469 898.445312 1758.777344 898.433594 1758.445312 898.425781 C 1758.441406 898.367188 1758.441406 898.308594 1758.441406 898.25 C 1758.449219 898.046875 1758.457031 897.839844 1758.464844 897.636719 C 1758.480469 897.433594 1758.496094 897.230469 1758.511719 897.027344 C 1758.539062 896.828125 1758.566406 896.625 1758.59375 896.425781 C 1758.632812 896.226562 1758.667969 896.03125 1758.707031 895.832031 C 1758.753906 895.636719 1758.800781 895.441406 1758.847656 895.246094 C 1758.90625 895.054688 1758.964844 894.863281 1759.019531 894.671875 L 1759.226562 894.109375 C 1759.304688 893.925781 1759.382812 893.742188 1759.464844 893.554688 C 1759.554688 893.375 1759.644531 893.195312 1759.734375 893.015625 C 1759.839844 892.835938 1759.941406 892.65625 1760.042969 892.476562 C 1760.160156 892.300781 1760.273438 892.125 1760.390625 891.949219 C 1760.519531 891.769531 1760.648438 891.59375 1760.777344 891.414062 C 1760.917969 891.242188 1761.054688 891.066406 1761.195312 890.890625 C 1761.480469 890.5625 1761.769531 890.238281 1762.074219 889.917969 C 1762.441406 889.535156 1762.828125 889.167969 1763.21875 888.804688 C 1763.945312 888.136719 1764.699219 887.5 1765.460938 886.871094 C 1765.859375 886.546875 1766.257812 886.222656 1766.660156 885.90625 C 1767.113281 886.628906 1767.578125 887.34375 1768.0625 888.046875 M 1793.457031 878.261719 C 1793.382812 878.625 1793.316406 878.988281 1793.242188 879.347656 C 1793.113281 879.976562 1792.984375 880.605469 1792.824219 881.226562 C 1792.65625 881.882812 1792.46875 882.535156 1792.277344 883.1875 C 1791.941406 884.234375 1791.578125 885.269531 1791.183594 886.292969 C 1791.113281 886.480469 1791.039062 886.664062 1790.964844 886.847656 C 1790.089844 886.238281 1789.179688 885.671875 1788.246094 885.152344 C 1789.210938 883.441406 1790.289062 881.796875 1791.550781 880.289062 C 1792.144531 879.574219 1792.78125 878.898438 1793.457031 878.261719 M 1806.8125 894.507812 C 1806.363281 894.640625 1805.902344 894.753906 1805.460938 894.914062 C 1805.273438 894.984375 1805.089844 895.0625 1804.914062 895.152344 C 1804.898438 895.160156 1804.882812 895.167969 1804.867188 895.171875 C 1804.761719 895.207031 1804.65625 895.242188 1804.546875 895.277344 C 1804.019531 895.527344 1803.492188 895.777344 1802.960938 896.019531 C 1802.597656 896.1875 1802.234375 896.351562 1801.867188 896.511719 C 1801.6875 896.589844 1801.503906 896.667969 1801.320312 896.742188 C 1800.878906 896.921875 1800.433594 897.09375 1799.984375 897.257812 C 1799.851562 897.046875 1799.71875 896.832031 1799.582031 896.621094 C 1799.296875 896.183594 1799.019531 895.742188 1798.738281 895.300781 C 1801.191406 894.609375 1803.644531 893.910156 1806.097656 893.210938 C 1806.316406 893.148438 1806.535156 893.085938 1806.753906 893.027344 C 1806.796875 893.011719 1806.835938 893 1806.878906 892.988281 C 1807.050781 892.941406 1807.21875 892.894531 1807.390625 892.847656 C 1808.089844 892.671875 1808.789062 892.511719 1809.507812 892.449219 C 1809.851562 892.417969 1810.199219 892.410156 1810.546875 892.429688 C 1810.574219 892.429688 1810.597656 892.433594 1810.625 892.4375 C 1810.550781 892.566406 1810.480469 892.695312 1810.40625 892.824219 C 1810.367188 892.878906 1810.328125 892.9375 1810.289062 892.996094 C 1810.1875 893.015625 1810.089844 893.039062 1809.988281 893.070312 C 1809.832031 893.148438 1809.675781 893.226562 1809.519531 893.308594 C 1809.382812 893.378906 1809.253906 893.453125 1809.125 893.53125 C 1808.957031 893.621094 1808.789062 893.707031 1808.617188 893.789062 C 1808.113281 894.011719 1807.609375 894.226562 1807.09375 894.417969 C 1807.039062 894.4375 1806.980469 894.457031 1806.925781 894.476562 C 1806.886719 894.488281 1806.851562 894.5 1806.8125 894.507812 M 1796.234375 919.640625 C 1796.21875 919.667969 1796.199219 919.691406 1796.183594 919.710938 C 1796.160156 919.730469 1796.140625 919.746094 1796.121094 919.765625 C 1796.085938 919.789062 1796.054688 919.808594 1796.019531 919.832031 L 1795.828125 919.910156 C 1795.816406 919.914062 1795.804688 919.917969 1795.792969 919.921875 C 1795.894531 919.820312 1795.996094 919.710938 1796.085938 919.59375 L 1796.140625 919.527344 C 1796.191406 919.511719 1796.246094 919.496094 1796.296875 919.476562 C 1796.28125 919.535156 1796.261719 919.589844 1796.234375 919.640625 M 1762.140625 911.402344 C 1762.316406 911.554688 1762.492188 911.707031 1762.671875 911.855469 C 1763.542969 912.582031 1764.480469 913.234375 1765.441406 913.839844 C 1766.28125 914.371094 1767.160156 914.847656 1768.054688 915.289062 C 1768.585938 915.550781 1769.125 915.796875 1769.667969 916.027344 C 1769.527344 916.371094 1769.390625 916.714844 1769.257812 917.058594 C 1769.148438 917.019531 1769.042969 916.976562 1768.933594 916.933594 C 1768.105469 916.601562 1767.292969 916.21875 1766.5 915.800781 C 1765.707031 915.386719 1764.929688 914.9375 1764.179688 914.441406 C 1762.921875 913.613281 1761.730469 912.699219 1760.617188 911.683594 C 1760.535156 911.609375 1760.453125 911.535156 1760.375 911.457031 C 1760.964844 911.453125 1761.554688 911.433594 1762.140625 911.402344 M 1754.34375 902.441406 C 1754.332031 902.3125 1754.332031 902.183594 1754.34375 902.054688 C 1754.34375 901.976562 1754.355469 901.898438 1754.367188 901.816406 C 1754.378906 901.785156 1754.386719 901.75 1754.398438 901.714844 C 1754.414062 901.679688 1754.429688 901.640625 1754.445312 901.605469 C 1754.460938 901.578125 1754.476562 901.546875 1754.492188 901.519531 C 1754.570312 901.421875 1754.648438 901.324219 1754.730469 901.234375 C 1754.765625 901.203125 1754.796875 901.175781 1754.832031 901.148438 C 1754.871094 901.121094 1754.910156 901.09375 1754.949219 901.070312 C 1754.996094 901.046875 1755.042969 901.023438 1755.089844 901 C 1755.148438 900.976562 1755.203125 900.957031 1755.261719 900.933594 C 1755.3125 900.921875 1755.367188 900.90625 1755.421875 900.890625 C 1755.535156 900.902344 1755.648438 900.914062 1755.757812 900.929688 C 1755.816406 901.246094 1755.882812 901.558594 1755.960938 901.867188 C 1756.160156 902.671875 1756.414062 903.460938 1756.730469 904.226562 C 1756.703125 904.238281 1756.679688 904.246094 1756.652344 904.253906 C 1756.210938 904.414062 1755.765625 904.566406 1755.316406 904.710938 C 1755.199219 904.46875 1755.078125 904.226562 1754.960938 903.988281 C 1754.847656 903.746094 1754.738281 903.503906 1754.628906 903.265625 C 1754.542969 903.054688 1754.457031 902.847656 1754.367188 902.640625 C 1754.363281 902.621094 1754.359375 902.601562 1754.355469 902.585938 C 1754.351562 902.539062 1754.347656 902.488281 1754.34375 902.441406 M 1793.621094 893.226562 C 1793.382812 893.296875 1793.140625 893.363281 1792.898438 893.433594 C 1792.667969 893.285156 1792.429688 893.140625 1792.195312 893.003906 C 1792.316406 892.699219 1792.4375 892.394531 1792.558594 892.089844 C 1792.808594 892.339844 1793.058594 892.59375 1793.292969 892.855469 C 1793.40625 892.976562 1793.511719 893.101562 1793.621094 893.226562 M 1794.667969 919.96875 C 1794.742188 919.945312 1794.8125 919.921875 1794.886719 919.898438 C 1794.941406 919.871094 1794.996094 919.832031 1795.042969 919.789062 C 1795.066406 919.792969 1795.09375 919.796875 1795.121094 919.796875 C 1795.082031 919.820312 1795.039062 919.839844 1794.996094 919.863281 C 1794.917969 919.890625 1794.839844 919.917969 1794.761719 919.949219 C 1794.730469 919.953125 1794.703125 919.960938 1794.675781 919.96875 C 1794.671875 919.96875 1794.671875 919.96875 1794.667969 919.96875 M 1784.351562 918.28125 C 1784.359375 918.265625 1784.367188 918.25 1784.375 918.238281 C 1784.382812 918.226562 1784.386719 918.210938 1784.394531 918.199219 C 1784.957031 918.136719 1785.515625 918.054688 1786.070312 917.949219 C 1786.335938 917.898438 1786.601562 917.84375 1786.867188 917.785156 C 1786.894531 917.796875 1786.921875 917.808594 1786.945312 917.820312 C 1786.164062 918.03125 1785.375 918.214844 1784.574219 918.363281 C 1784.535156 918.367188 1784.496094 918.375 1784.457031 918.382812 C 1784.421875 918.347656 1784.386719 918.316406 1784.351562 918.28125 M 1757.847656 907.203125 C 1757.992188 907.164062 1758.132812 907.117188 1758.273438 907.074219 C 1758.476562 907.378906 1758.6875 907.679688 1758.910156 907.96875 C 1758.449219 907.949219 1757.988281 907.925781 1757.527344 907.882812 C 1757.4375 907.875 1757.347656 907.867188 1757.257812 907.855469 C 1757.160156 907.722656 1757.066406 907.589844 1756.972656 907.457031 C 1757.265625 907.378906 1757.558594 907.296875 1757.847656 907.203125 M 1800.054688 909.089844 C 1800.015625 909.230469 1799.976562 909.375 1799.9375 909.515625 C 1799.832031 909.816406 1799.726562 910.113281 1799.585938 910.398438 C 1799.539062 910.503906 1799.480469 910.605469 1799.425781 910.707031 C 1799.378906 910.777344 1799.332031 910.847656 1799.28125 910.921875 C 1799.1875 911.042969 1799.09375 911.164062 1799 911.289062 C 1798.894531 911.410156 1798.789062 911.53125 1798.683594 911.652344 C 1798.5625 911.773438 1798.445312 911.890625 1798.328125 912.011719 C 1798.015625 912.292969 1797.699219 912.570312 1797.363281 912.828125 C 1797.132812 913.007812 1796.894531 913.175781 1796.65625 913.339844 C 1796.640625 913.292969 1796.621094 913.25 1796.605469 913.203125 C 1796.769531 913.074219 1796.929688 912.933594 1797.085938 912.792969 C 1797.421875 912.542969 1797.75 912.28125 1798.054688 911.988281 C 1798.757812 911.320312 1799.351562 910.523438 1799.765625 909.644531 C 1799.886719 909.382812 1799.992188 909.117188 1800.085938 908.84375 C 1800.089844 908.847656 1800.097656 908.847656 1800.101562 908.851562 C 1800.085938 908.929688 1800.070312 909.007812 1800.054688 909.089844 M 1780.289062 893.605469 C 1779.957031 893.261719 1779.632812 892.914062 1779.308594 892.558594 C 1778.753906 891.945312 1778.210938 891.316406 1777.679688 890.679688 C 1778.28125 890.75 1778.886719 890.847656 1779.480469 890.984375 C 1780.066406 891.117188 1780.644531 891.273438 1781.21875 891.445312 C 1780.90625 892.164062 1780.597656 892.882812 1780.289062 893.605469 M 1772.402344 909.410156 C 1772.457031 909.496094 1772.507812 909.582031 1772.558594 909.667969 C 1772.035156 910.738281 1771.523438 911.808594 1771.027344 912.890625 C 1770.734375 912.769531 1770.441406 912.648438 1770.148438 912.515625 C 1769.046875 912.023438 1767.976562 911.453125 1766.949219 910.820312 C 1768.796875 910.476562 1770.617188 910 1772.402344 909.410156 M 1787.875 894.234375 C 1787.769531 894.472656 1787.660156 894.710938 1787.550781 894.949219 C 1787.023438 895.097656 1786.496094 895.25 1785.96875 895.398438 C 1785.023438 895.664062 1784.078125 895.933594 1783.132812 896.203125 C 1783.632812 895.035156 1784.121094 893.867188 1784.621094 892.703125 C 1785.722656 893.171875 1786.804688 893.691406 1787.875 894.234375 M 1796.792969 908.90625 C 1796.78125 908.921875 1796.773438 908.941406 1796.761719 908.957031 C 1796.679688 909.074219 1796.59375 909.191406 1796.511719 909.304688 C 1796.410156 909.425781 1796.3125 909.546875 1796.210938 909.667969 C 1796.101562 909.785156 1795.992188 909.902344 1795.882812 910.019531 C 1795.761719 910.136719 1795.636719 910.253906 1795.511719 910.371094 C 1795.5 910.378906 1795.484375 910.390625 1795.472656 910.402344 C 1795.15625 909.726562 1794.820312 909.0625 1794.453125 908.414062 C 1794.023438 907.648438 1793.558594 906.90625 1793.058594 906.1875 C 1794.488281 906.644531 1795.90625 907.148438 1797.304688 907.691406 C 1797.175781 908.109375 1797.003906 908.515625 1796.792969 908.90625 M 1774.878906 912.933594 C 1775.175781 913.292969 1775.480469 913.648438 1775.792969 913.996094 C 1775.929688 914.148438 1776.0625 914.300781 1776.199219 914.453125 C 1775.578125 914.328125 1774.960938 914.179688 1774.351562 914.015625 C 1774.523438 913.652344 1774.703125 913.292969 1774.878906 912.933594 M 1762.128906 905.820312 C 1763.355469 905.421875 1764.585938 905.03125 1765.816406 904.652344 C 1766.027344 904.585938 1766.242188 904.523438 1766.453125 904.457031 C 1767.03125 904.917969 1767.621094 905.367188 1768.203125 905.820312 C 1768.621094 906.148438 1769.035156 906.46875 1769.453125 906.792969 C 1769.308594 906.828125 1769.160156 906.871094 1769.015625 906.90625 C 1767.054688 907.386719 1765.0625 907.722656 1763.054688 907.890625 C 1762.464844 907.316406 1761.90625 906.707031 1761.398438 906.0625 C 1761.640625 905.980469 1761.886719 905.898438 1762.128906 905.820312 M 1786.480469 913.867188 C 1786.726562 913.320312 1786.96875 912.769531 1787.207031 912.21875 C 1787.710938 911.050781 1788.195312 909.878906 1788.679688 908.707031 C 1788.859375 908.273438 1789.039062 907.839844 1789.226562 907.410156 C 1789.324219 907.167969 1789.433594 906.929688 1789.554688 906.695312 C 1789.835938 907.03125 1790.113281 907.371094 1790.375 907.71875 C 1790.839844 908.390625 1791.273438 909.082031 1791.667969 909.796875 C 1792.09375 910.570312 1792.484375 911.371094 1792.828125 912.191406 C 1792.585938 912.320312 1792.339844 912.449219 1792.089844 912.570312 C 1791.78125 912.722656 1791.476562 912.878906 1791.175781 913.042969 C 1790.855469 913.207031 1790.523438 913.363281 1790.191406 913.511719 C 1789.839844 913.644531 1789.484375 913.773438 1789.125 913.890625 C 1788.648438 914.046875 1788.164062 914.1875 1787.675781 914.308594 C 1787.609375 914.324219 1787.542969 914.339844 1787.476562 914.355469 C 1787.144531 914.195312 1786.8125 914.03125 1786.480469 913.867188 M 1781.382812 915.023438 C 1781.328125 915.023438 1781.273438 915.019531 1781.21875 915.015625 C 1781.15625 914.953125 1781.097656 914.886719 1781.039062 914.824219 C 1781.152344 914.890625 1781.269531 914.957031 1781.382812 915.023438 M 1787.699219 904.746094 C 1787.613281 904.769531 1787.535156 904.804688 1787.460938 904.851562 C 1787.453125 904.828125 1787.445312 904.800781 1787.429688 904.777344 C 1787.367188 904.699219 1787.292969 904.675781 1787.195312 904.699219 C 1787.027344 904.773438 1786.867188 904.863281 1786.722656 904.976562 C 1786.566406 905.078125 1786.429688 905.199219 1786.308594 905.339844 C 1786.261719 905.433594 1786.21875 905.527344 1786.171875 905.621094 C 1786.070312 905.691406 1786 905.785156 1785.964844 905.902344 C 1785.414062 907.308594 1784.832031 908.707031 1784.253906 910.101562 C 1783.960938 910.800781 1783.664062 911.5 1783.359375 912.199219 C 1781.34375 911.039062 1779.390625 909.765625 1777.476562 908.445312 C 1777.398438 908.390625 1777.324219 908.335938 1777.246094 908.28125 C 1777.425781 907.933594 1777.609375 907.585938 1777.789062 907.238281 C 1778.140625 907.066406 1778.496094 906.894531 1778.84375 906.714844 C 1780.308594 905.96875 1781.757812 905.179688 1783.125 904.265625 C 1783.347656 904.117188 1783.566406 903.960938 1783.785156 903.808594 C 1785.0625 904.058594 1786.332031 904.335938 1787.59375 904.644531 C 1787.628906 904.679688 1787.664062 904.710938 1787.699219 904.746094 M 1773.671875 902.363281 C 1774.085938 902.402344 1774.5 902.441406 1774.910156 902.484375 C 1775.3125 902.527344 1775.714844 902.574219 1776.121094 902.617188 C 1775.726562 903.398438 1775.332031 904.175781 1774.933594 904.953125 C 1774.578125 905.101562 1774.21875 905.246094 1773.855469 905.382812 C 1773.726562 905.054688 1773.613281 904.726562 1773.519531 904.386719 C 1773.515625 904.371094 1773.511719 904.351562 1773.503906 904.335938 C 1773.480469 904.226562 1773.457031 904.113281 1773.433594 904.003906 C 1773.347656 903.5 1773.28125 902.996094 1773.230469 902.488281 C 1773.378906 902.445312 1773.523438 902.40625 1773.671875 902.363281 M 1772.894531 895.402344 C 1772.90625 895.125 1772.933594 894.847656 1772.980469 894.574219 C 1773.003906 894.417969 1773.042969 894.261719 1773.085938 894.109375 C 1774.441406 895.449219 1775.917969 896.671875 1777.488281 897.75 C 1777.503906 897.757812 1777.515625 897.765625 1777.53125 897.777344 C 1776.027344 898.195312 1774.523438 898.613281 1773.019531 899.039062 C 1773.015625 899.039062 1773.011719 899.039062 1773.007812 899.039062 C 1773.007812 899.027344 1773.007812 899.015625 1773.003906 899.003906 C 1772.96875 898.238281 1772.921875 897.46875 1772.902344 896.703125 C 1772.890625 896.269531 1772.875 895.835938 1772.894531 895.402344 M 1793.300781 897.457031 C 1793.675781 897.757812 1794.050781 898.058594 1794.40625 898.382812 C 1794.511719 898.476562 1794.617188 898.574219 1794.71875 898.671875 C 1793.15625 898.925781 1791.574219 899.03125 1789.984375 898.929688 C 1789.710938 898.914062 1789.433594 898.886719 1789.160156 898.855469 C 1789.40625 898.515625 1789.644531 898.171875 1789.871094 897.816406 C 1790.8125 897.546875 1791.757812 897.28125 1792.703125 897.011719 C 1792.714844 897.019531 1792.722656 897.027344 1792.734375 897.035156 C 1792.925781 897.175781 1793.113281 897.316406 1793.300781 897.457031 M 1797.011719 901.96875 C 1797.171875 902.414062 1797.304688 902.867188 1797.410156 903.332031 C 1797.484375 903.667969 1797.542969 904.011719 1797.582031 904.355469 C 1797.277344 904.238281 1796.96875 904.125 1796.664062 904.011719 C 1794.933594 903.382812 1793.183594 902.820312 1791.417969 902.316406 C 1791.996094 902.3125 1792.574219 902.289062 1793.152344 902.246094 C 1794.40625 902.152344 1795.660156 901.933594 1796.886719 901.644531 C 1796.929688 901.75 1796.972656 901.859375 1797.011719 901.96875 M 1767.625 893.140625 C 1767.945312 892.867188 1768.28125 892.609375 1768.632812 892.371094 C 1768.5625 892.421875 1768.492188 892.472656 1768.421875 892.523438 C 1768.582031 892.417969 1768.742188 892.3125 1768.902344 892.207031 C 1769.070312 892.109375 1769.238281 892.011719 1769.40625 891.917969 C 1769.582031 891.828125 1769.753906 891.738281 1769.929688 891.648438 C 1770.144531 891.550781 1770.363281 891.453125 1770.582031 891.363281 C 1770.707031 891.511719 1770.835938 891.664062 1770.964844 891.816406 C 1770.925781 891.882812 1770.886719 891.949219 1770.851562 892.015625 C 1770.773438 892.164062 1770.710938 892.316406 1770.65625 892.472656 C 1770.5 892.582031 1770.371094 892.714844 1770.273438 892.878906 C 1770.160156 893.199219 1770.046875 893.507812 1769.976562 893.84375 C 1769.929688 894.082031 1769.890625 894.324219 1769.859375 894.570312 C 1769.796875 895.132812 1769.789062 895.695312 1769.804688 896.261719 C 1769.824219 896.886719 1769.878906 897.519531 1769.933594 898.144531 C 1769.9375 898.191406 1769.941406 898.234375 1769.945312 898.28125 C 1769.957031 898.457031 1769.96875 898.628906 1769.980469 898.804688 C 1769.742188 898.789062 1769.503906 898.773438 1769.265625 898.757812 C 1767.820312 898.671875 1766.371094 898.613281 1764.921875 898.570312 C 1764.808594 898.421875 1764.703125 898.269531 1764.605469 898.105469 C 1764.539062 898 1764.480469 897.890625 1764.4375 897.773438 C 1764.4375 897.761719 1764.4375 897.746094 1764.4375 897.734375 C 1764.441406 897.71875 1764.441406 897.703125 1764.445312 897.683594 C 1764.464844 897.605469 1764.484375 897.523438 1764.503906 897.441406 C 1764.53125 897.355469 1764.5625 897.273438 1764.589844 897.1875 C 1764.625 897.097656 1764.664062 897.007812 1764.699219 896.917969 C 1764.746094 896.820312 1764.792969 896.722656 1764.839844 896.625 C 1764.898438 896.515625 1764.957031 896.410156 1765.015625 896.304688 C 1765.09375 896.171875 1765.171875 896.042969 1765.25 895.914062 C 1765.34375 895.769531 1765.4375 895.628906 1765.539062 895.492188 C 1765.640625 895.347656 1765.75 895.210938 1765.859375 895.070312 C 1766.253906 894.589844 1766.636719 894.097656 1767.074219 893.65625 C 1767.25 893.472656 1767.429688 893.300781 1767.625 893.140625 M 1758.972656 901.46875 C 1759.269531 901.527344 1759.570312 901.605469 1759.871094 901.644531 C 1760.179688 901.660156 1760.496094 901.675781 1760.804688 901.691406 C 1761.121094 901.703125 1761.433594 901.714844 1761.746094 901.726562 C 1762.3125 901.746094 1762.878906 901.761719 1763.445312 901.78125 C 1763.472656 901.8125 1763.5 901.847656 1763.527344 901.878906 C 1762.6875 902.148438 1761.851562 902.421875 1761.019531 902.707031 C 1760.535156 902.871094 1760.054688 903.039062 1759.570312 903.210938 C 1759.484375 903.035156 1759.402344 902.859375 1759.328125 902.679688 C 1759.152344 902.277344 1758.996094 901.863281 1758.855469 901.445312 C 1758.894531 901.453125 1758.933594 901.460938 1758.972656 901.46875 M 1788.472656 888.878906 C 1788.664062 888.996094 1788.855469 889.117188 1789.046875 889.242188 C 1789.214844 889.359375 1789.382812 889.472656 1789.554688 889.589844 C 1789.628906 889.644531 1789.699219 889.699219 1789.773438 889.753906 C 1789.546875 890.289062 1789.320312 890.824219 1789.09375 891.359375 C 1788.222656 890.945312 1787.339844 890.546875 1786.449219 890.175781 C 1786.246094 890.09375 1786.046875 890.011719 1785.84375 889.929688 C 1786.152344 889.253906 1786.46875 888.578125 1786.796875 887.910156 C 1787.363281 888.21875 1787.921875 888.539062 1788.472656 888.878906 M 1773.578125 918.324219 C 1773.214844 918.253906 1772.855469 918.171875 1772.496094 918.085938 C 1772.625 917.78125 1772.757812 917.476562 1772.890625 917.171875 C 1774.261719 917.574219 1775.65625 917.878906 1777.066406 918.082031 C 1777.972656 918.214844 1778.882812 918.300781 1779.796875 918.347656 C 1779.921875 918.480469 1780.050781 918.613281 1780.179688 918.746094 C 1780.164062 918.78125 1780.140625 918.8125 1780.125 918.847656 C 1777.929688 918.921875 1775.730469 918.757812 1773.578125 918.324219 M 1764.441406 874.339844 C 1764.445312 874.34375 1764.449219 874.351562 1764.453125 874.355469 C 1764.46875 874.414062 1764.484375 874.46875 1764.5 874.527344 C 1764.511719 874.675781 1764.53125 874.824219 1764.554688 874.96875 C 1764.558594 875.039062 1764.5625 875.105469 1764.574219 875.171875 C 1764.464844 874.929688 1764.351562 874.691406 1764.25 874.445312 C 1764.316406 874.410156 1764.378906 874.375 1764.441406 874.339844 M 1781.898438 885.613281 C 1782.453125 885.851562 1783.011719 886.089844 1783.5625 886.335938 C 1783.472656 886.519531 1783.382812 886.703125 1783.292969 886.886719 C 1783 887.492188 1782.714844 888.105469 1782.433594 888.71875 C 1782.335938 888.6875 1782.234375 888.65625 1782.132812 888.625 C 1782.113281 888.617188 1782.097656 888.609375 1782.078125 888.605469 C 1781.902344 888.546875 1781.726562 888.496094 1781.550781 888.441406 C 1781.433594 888.40625 1781.3125 888.371094 1781.195312 888.335938 C 1781.171875 888.328125 1781.144531 888.324219 1781.121094 888.316406 C 1780.707031 888.195312 1780.292969 888.085938 1779.875 887.984375 C 1778.320312 887.613281 1776.710938 887.417969 1775.109375 887.410156 C 1774.9375 887.179688 1774.765625 886.945312 1774.59375 886.710938 C 1773.683594 885.46875 1772.804688 884.203125 1771.9375 882.929688 C 1771.964844 882.925781 1771.992188 882.921875 1772.019531 882.917969 C 1772.363281 882.875 1772.710938 882.859375 1773.054688 882.863281 C 1773.234375 882.875 1773.410156 882.882812 1773.585938 882.890625 C 1773.769531 882.910156 1773.957031 882.933594 1774.140625 882.953125 C 1774.050781 882.9375 1773.957031 882.921875 1773.867188 882.90625 C 1774.3125 882.96875 1774.753906 883.050781 1775.191406 883.148438 C 1775.546875 883.230469 1775.894531 883.324219 1776.242188 883.425781 C 1776.773438 883.589844 1777.300781 883.765625 1777.824219 883.960938 C 1779.199219 884.464844 1780.542969 885.054688 1781.898438 885.613281 M 1772.074219 928.578125 C 1771.996094 928.601562 1771.914062 928.621094 1771.835938 928.640625 C 1771.652344 928.6875 1771.464844 928.71875 1771.277344 928.738281 C 1771.171875 928.742188 1771.066406 928.75 1770.960938 928.753906 C 1770.863281 928.75 1770.765625 928.75 1770.667969 928.746094 C 1770.605469 928.738281 1770.542969 928.730469 1770.484375 928.71875 C 1770.414062 928.703125 1770.34375 928.6875 1770.273438 928.671875 C 1770.207031 928.652344 1770.136719 928.628906 1770.070312 928.605469 C 1770.003906 928.578125 1769.9375 928.550781 1769.875 928.523438 C 1769.808594 928.492188 1769.75 928.457031 1769.683594 928.425781 C 1769.664062 928.414062 1769.644531 928.398438 1769.625 928.386719 C 1769.597656 928.351562 1769.570312 928.320312 1769.542969 928.285156 C 1769.378906 928.046875 1769.234375 927.792969 1769.117188 927.53125 C 1769.183594 927.65625 1769.253906 927.785156 1769.320312 927.910156 C 1769.28125 927.824219 1769.246094 927.738281 1769.207031 927.652344 C 1769.175781 927.550781 1769.140625 927.453125 1769.105469 927.351562 C 1769.097656 927.320312 1769.089844 927.292969 1769.082031 927.261719 C 1769.082031 927.242188 1769.082031 927.21875 1769.078125 927.199219 C 1769.078125 927.078125 1769.078125 926.957031 1769.078125 926.832031 C 1769.085938 926.71875 1769.089844 926.601562 1769.097656 926.488281 C 1769.105469 926.386719 1769.117188 926.289062 1769.128906 926.191406 C 1769.136719 926.167969 1769.140625 926.144531 1769.148438 926.125 C 1769.289062 925.71875 1769.417969 925.308594 1769.566406 924.90625 C 1769.710938 924.503906 1769.882812 924.113281 1770.058594 923.722656 C 1770.207031 923.421875 1770.351562 923.121094 1770.503906 922.820312 C 1770.660156 922.5 1770.828125 922.179688 1770.972656 921.855469 C 1771.046875 921.667969 1771.121094 921.480469 1771.191406 921.292969 C 1771.238281 921.304688 1771.289062 921.316406 1771.335938 921.328125 C 1772.207031 921.546875 1773.085938 921.734375 1773.972656 921.882812 C 1775.03125 922.066406 1776.109375 922.171875 1777.183594 922.230469 C 1777.464844 922.246094 1777.75 922.257812 1778.027344 922.265625 C 1777.464844 923.109375 1776.871094 923.933594 1776.25 924.738281 C 1775.875 925.21875 1775.496094 925.695312 1775.082031 926.140625 C 1774.871094 926.371094 1774.65625 926.597656 1774.433594 926.820312 C 1773.898438 927.347656 1773.304688 927.859375 1772.660156 928.253906 C 1772.46875 928.371094 1772.273438 928.476562 1772.074219 928.578125 M 1809.753906 920.03125 C 1809.714844 920.152344 1809.675781 920.273438 1809.636719 920.394531 C 1809.589844 920.515625 1809.542969 920.632812 1809.496094 920.753906 C 1809.441406 920.871094 1809.382812 920.992188 1809.328125 921.109375 C 1809.273438 921.199219 1809.222656 921.289062 1809.167969 921.382812 C 1808.972656 921.652344 1808.757812 921.898438 1808.53125 922.148438 C 1808.417969 922.261719 1808.300781 922.378906 1808.1875 922.496094 C 1808.046875 922.621094 1807.910156 922.75 1807.769531 922.875 C 1807.539062 923.074219 1807.300781 923.273438 1807.058594 923.460938 C 1806.800781 923.660156 1806.539062 923.855469 1806.277344 924.046875 C 1805.6875 924.460938 1805.089844 924.863281 1804.492188 925.265625 C 1803.984375 925.609375 1803.460938 925.933594 1802.925781 926.230469 C 1802.683594 926.367188 1802.4375 926.492188 1802.1875 926.605469 C 1802.15625 926.617188 1802.125 926.628906 1802.09375 926.640625 C 1801.921875 926.699219 1801.746094 926.753906 1801.570312 926.808594 L 1801.042969 926.945312 C 1800.863281 926.976562 1800.6875 927.011719 1800.507812 927.046875 C 1800.140625 927.097656 1799.769531 927.128906 1799.398438 927.132812 C 1799.121094 927.136719 1798.84375 927.128906 1798.566406 927.101562 C 1798.285156 927.082031 1798.007812 927.050781 1797.730469 927.007812 C 1797.351562 926.945312 1796.976562 926.867188 1796.605469 926.777344 C 1796.394531 926.714844 1796.183594 926.660156 1795.976562 926.597656 C 1795.773438 926.53125 1795.570312 926.464844 1795.371094 926.402344 C 1794.980469 926.253906 1794.589844 926.101562 1794.207031 925.933594 C 1793.753906 925.738281 1793.3125 925.511719 1792.878906 925.273438 C 1791.894531 924.726562 1790.933594 924.128906 1790.03125 923.453125 C 1789.082031 922.738281 1788.183594 921.964844 1787.308594 921.160156 C 1787.300781 921.15625 1787.292969 921.148438 1787.285156 921.140625 C 1788.324219 920.855469 1789.347656 920.519531 1790.351562 920.136719 C 1790.664062 920.015625 1790.96875 919.890625 1791.277344 919.761719 C 1791.324219 919.78125 1791.371094 919.800781 1791.417969 919.820312 C 1791.589844 919.890625 1791.769531 919.953125 1791.945312 920.007812 C 1792.152344 920.109375 1792.359375 920.203125 1792.578125 920.285156 C 1792.671875 920.324219 1792.773438 920.351562 1792.871094 920.375 C 1793.371094 920.511719 1793.878906 920.550781 1794.394531 920.488281 C 1794.457031 920.507812 1794.519531 920.519531 1794.585938 920.527344 C 1794.828125 920.558594 1795.078125 920.601562 1795.316406 920.570312 C 1795.371094 920.5625 1795.425781 920.554688 1795.476562 920.542969 C 1795.609375 920.527344 1795.730469 920.492188 1795.851562 920.4375 C 1795.980469 920.398438 1796.109375 920.34375 1796.230469 920.285156 C 1796.308594 920.230469 1796.386719 920.179688 1796.464844 920.128906 C 1796.6875 919.972656 1796.882812 919.777344 1797.039062 919.554688 C 1797.125 919.414062 1797.1875 919.265625 1797.234375 919.109375 C 1797.292969 918.964844 1797.324219 918.816406 1797.324219 918.65625 C 1797.328125 918.617188 1797.328125 918.578125 1797.328125 918.535156 C 1797.363281 918.445312 1797.398438 918.351562 1797.433594 918.257812 C 1797.457031 918.160156 1797.480469 918.0625 1797.503906 917.964844 C 1797.527344 917.824219 1797.53125 917.660156 1797.53125 917.515625 C 1797.53125 917.339844 1797.515625 917.164062 1797.5 916.992188 C 1797.5 916.976562 1797.503906 916.964844 1797.503906 916.949219 C 1797.515625 916.75 1797.507812 916.546875 1797.480469 916.347656 C 1797.558594 916.289062 1797.640625 916.230469 1797.71875 916.167969 C 1798.0625 915.941406 1798.402344 915.703125 1798.730469 915.453125 C 1799.097656 915.175781 1799.445312 914.875 1799.78125 914.558594 C 1799.789062 914.554688 1799.796875 914.550781 1799.804688 914.542969 C 1800.507812 914 1801.179688 913.375 1801.691406 912.640625 C 1802.214844 911.898438 1802.605469 911.089844 1802.847656 910.214844 C 1802.855469 910.191406 1802.859375 910.167969 1802.863281 910.148438 C 1803.347656 910.386719 1803.828125 910.632812 1804.300781 910.886719 C 1804.773438 911.144531 1805.242188 911.414062 1805.695312 911.703125 C 1805.839844 911.800781 1805.980469 911.898438 1806.125 911.996094 C 1806.300781 912.128906 1806.476562 912.261719 1806.652344 912.390625 C 1807.019531 912.675781 1807.371094 912.976562 1807.707031 913.296875 C 1808.042969 913.613281 1808.355469 913.949219 1808.648438 914.300781 C 1808.75 914.417969 1808.84375 914.535156 1808.933594 914.65625 C 1809.070312 914.910156 1809.195312 915.164062 1809.308594 915.429688 C 1809.476562 915.839844 1809.625 916.265625 1809.726562 916.699219 C 1809.828125 917.125 1809.910156 917.558594 1809.9375 917.996094 C 1809.941406 918.140625 1809.945312 918.285156 1809.953125 918.429688 C 1809.957031 918.714844 1809.9375 918.996094 1809.902344 919.28125 C 1809.882812 919.40625 1809.859375 919.53125 1809.839844 919.65625 C 1809.8125 919.78125 1809.78125 919.90625 1809.753906 920.03125 M 1765.851562 872.375 C 1765.925781 872.492188 1765.996094 872.605469 1766.0625 872.722656 C 1765.957031 872.691406 1765.851562 872.65625 1765.746094 872.621094 C 1765.742188 872.609375 1765.734375 872.597656 1765.730469 872.585938 C 1765.773438 872.59375 1765.820312 872.601562 1765.863281 872.609375 C 1765.820312 872.597656 1765.773438 872.589844 1765.726562 872.582031 C 1765.71875 872.5625 1765.710938 872.539062 1765.699219 872.519531 C 1765.605469 872.355469 1765.496094 872.203125 1765.375 872.058594 C 1765.46875 872.109375 1765.558594 872.160156 1765.648438 872.210938 C 1765.71875 872.265625 1765.785156 872.320312 1765.851562 872.375 M 1813.4375 891.28125 C 1813.328125 890.828125 1813.085938 890.382812 1812.726562 890.078125 C 1812.554688 889.929688 1812.347656 889.804688 1812.140625 889.714844 C 1811.972656 889.640625 1811.804688 889.574219 1811.628906 889.53125 C 1811.433594 889.5 1811.238281 889.464844 1811.042969 889.433594 C 1810.96875 889.425781 1810.894531 889.421875 1810.820312 889.414062 C 1810.796875 889.40625 1810.769531 889.398438 1810.746094 889.390625 C 1810.492188 889.3125 1810.226562 889.28125 1809.964844 889.253906 C 1809.578125 889.21875 1809.195312 889.210938 1808.808594 889.226562 C 1808.035156 889.261719 1807.273438 889.386719 1806.523438 889.566406 C 1806.039062 889.675781 1805.570312 889.820312 1805.09375 889.964844 C 1804.5625 890.125 1804.03125 890.277344 1803.496094 890.425781 C 1801.234375 891.070312 1798.96875 891.710938 1796.707031 892.351562 C 1796.429688 891.984375 1796.144531 891.621094 1795.851562 891.261719 C 1795.195312 890.46875 1794.472656 889.734375 1793.714844 889.039062 C 1794.5 886.898438 1795.203125 884.71875 1795.628906 882.472656 C 1795.664062 882.289062 1795.695312 882.101562 1795.726562 881.914062 C 1795.800781 881.601562 1795.871094 881.285156 1795.933594 880.972656 C 1796.09375 880.195312 1796.203125 879.40625 1796.289062 878.617188 C 1796.308594 878.402344 1796.328125 878.1875 1796.351562 877.972656 C 1796.351562 877.964844 1796.355469 877.957031 1796.355469 877.949219 C 1796.523438 877.800781 1796.695312 877.652344 1796.851562 877.492188 C 1796.972656 877.386719 1797.070312 877.265625 1797.148438 877.128906 C 1797.25 876.992188 1797.324219 876.84375 1797.371094 876.679688 C 1797.394531 876.554688 1797.421875 876.414062 1797.40625 876.285156 C 1797.390625 876.210938 1797.378906 876.136719 1797.363281 876.066406 C 1797.324219 875.949219 1797.257812 875.855469 1797.164062 875.78125 C 1797.136719 875.753906 1797.105469 875.734375 1797.078125 875.714844 C 1797.097656 875.683594 1797.121094 875.652344 1797.144531 875.621094 C 1797.222656 875.390625 1797.246094 875.152344 1797.214844 874.914062 C 1797.265625 874.75 1797.257812 874.589844 1797.191406 874.425781 C 1797.160156 874.253906 1797.078125 874.113281 1796.953125 873.996094 C 1796.875 873.878906 1796.777344 873.785156 1796.664062 873.707031 C 1796.46875 873.578125 1796.222656 873.46875 1795.992188 873.417969 C 1795.773438 873.371094 1795.550781 873.375 1795.328125 873.414062 C 1795.164062 873.445312 1795.007812 873.492188 1794.863281 873.578125 C 1794.808594 873.613281 1794.753906 873.648438 1794.703125 873.679688 C 1794.542969 873.613281 1794.378906 873.589844 1794.207031 873.613281 C 1793.996094 873.660156 1793.789062 873.714844 1793.589844 873.800781 C 1793.414062 873.878906 1793.238281 873.972656 1793.074219 874.078125 C 1792.960938 874.160156 1792.847656 874.246094 1792.734375 874.332031 C 1792.507812 874.492188 1792.285156 874.664062 1792.070312 874.847656 C 1791.746094 875.109375 1791.421875 875.378906 1791.113281 875.660156 C 1790.289062 876.398438 1789.515625 877.199219 1788.800781 878.042969 C 1787.363281 879.75 1786.132812 881.609375 1785.035156 883.546875 C 1784.183594 883.167969 1783.320312 882.808594 1782.453125 882.46875 C 1781.53125 882.109375 1780.605469 881.746094 1779.667969 881.441406 C 1779.339844 881.332031 1779.007812 881.230469 1778.679688 881.132812 C 1778.433594 881.042969 1778.1875 880.949219 1777.941406 880.863281 C 1777.4375 880.691406 1776.925781 880.53125 1776.414062 880.386719 C 1776.210938 880.332031 1775.996094 880.285156 1775.789062 880.234375 C 1775.375 880.132812 1774.941406 880.054688 1774.523438 880.003906 C 1774.457031 879.996094 1774.390625 879.988281 1774.320312 879.984375 C 1772.894531 879.769531 1771.449219 879.761719 1770.03125 880.101562 C 1769.394531 879.152344 1768.761719 878.203125 1768.125 877.253906 C 1768.054688 877.148438 1767.984375 877.039062 1767.914062 876.933594 C 1767.632812 876.425781 1767.378906 875.90625 1767.140625 875.378906 C 1767.132812 875.324219 1767.125 875.265625 1767.117188 875.210938 C 1767.113281 875.179688 1767.113281 875.148438 1767.113281 875.117188 C 1767.109375 875.097656 1767.109375 875.082031 1767.105469 875.0625 C 1767.121094 874.925781 1767.128906 874.789062 1767.128906 874.648438 C 1767.160156 874.371094 1767.148438 874.09375 1767.089844 873.820312 L 1767 873.605469 C 1766.988281 873.589844 1766.980469 873.574219 1766.972656 873.558594 C 1766.972656 873.496094 1766.972656 873.433594 1766.972656 873.375 C 1766.921875 873.132812 1766.84375 872.902344 1766.75 872.675781 C 1766.6875 872.46875 1766.582031 872.289062 1766.433594 872.128906 C 1766.320312 871.96875 1766.179688 871.851562 1766.007812 871.769531 C 1765.5625 871.546875 1765.132812 871.527344 1764.683594 871.5625 C 1764.597656 871.527344 1764.507812 871.5 1764.414062 871.480469 C 1764.265625 871.429688 1764.109375 871.402344 1763.953125 871.402344 C 1763.703125 871.398438 1763.449219 871.433594 1763.207031 871.496094 C 1762.890625 871.574219 1762.601562 871.761719 1762.355469 871.972656 C 1762.183594 872.117188 1762.023438 872.285156 1761.894531 872.476562 C 1761.71875 872.703125 1761.621094 872.988281 1761.5625 873.273438 C 1761.523438 873.464844 1761.511719 873.671875 1761.519531 873.875 C 1761.492188 873.925781 1761.460938 873.96875 1761.433594 874.019531 C 1761.390625 874.175781 1761.363281 874.332031 1761.359375 874.492188 C 1761.339844 874.714844 1761.332031 874.933594 1761.355469 875.15625 C 1761.394531 875.542969 1761.515625 875.914062 1761.65625 876.277344 C 1761.707031 876.402344 1761.757812 876.53125 1761.8125 876.65625 C 1761.886719 876.875 1761.96875 877.085938 1762.0625 877.292969 C 1762.304688 877.824219 1762.566406 878.34375 1762.820312 878.867188 C 1763.355469 879.972656 1763.914062 881.066406 1764.488281 882.148438 C 1764.613281 882.375 1764.734375 882.601562 1764.859375 882.828125 C 1764.679688 882.96875 1764.5 883.113281 1764.320312 883.261719 C 1763.542969 883.898438 1762.777344 884.554688 1762.039062 885.238281 C 1760.765625 886.410156 1759.535156 887.640625 1758.5 889.035156 C 1757.375 890.539062 1756.5 892.222656 1756.042969 894.050781 C 1755.882812 894.691406 1755.777344 895.339844 1755.714844 895.996094 C 1755.601562 896.6875 1755.539062 897.386719 1755.527344 898.089844 C 1755.214844 898.121094 1754.910156 898.1875 1754.613281 898.289062 C 1754.507812 898.292969 1754.402344 898.296875 1754.296875 898.308594 C 1754.125 898.332031 1753.960938 898.382812 1753.792969 898.429688 C 1753.417969 898.539062 1753.074219 898.742188 1752.78125 899 C 1752.59375 899.164062 1752.433594 899.351562 1752.296875 899.558594 C 1752.261719 899.613281 1752.222656 899.667969 1752.1875 899.71875 C 1752.097656 899.851562 1752.03125 899.996094 1751.976562 900.144531 C 1751.925781 900.246094 1751.882812 900.351562 1751.839844 900.472656 C 1751.761719 900.707031 1751.707031 900.921875 1751.683594 901.171875 C 1751.679688 901.21875 1751.675781 901.269531 1751.675781 901.316406 C 1751.488281 901.878906 1751.484375 902.503906 1751.5625 903.082031 C 1751.636719 903.652344 1751.800781 904.210938 1751.984375 904.757812 C 1751.996094 904.792969 1752.007812 904.824219 1752.019531 904.859375 C 1751.996094 904.867188 1751.972656 904.871094 1751.949219 904.878906 C 1751.765625 904.925781 1751.597656 905.007812 1751.449219 905.125 C 1751.410156 905.175781 1751.371094 905.230469 1751.335938 905.28125 C 1751.164062 905.382812 1751.003906 905.496094 1750.855469 905.628906 C 1750.738281 905.789062 1750.644531 905.960938 1750.570312 906.144531 C 1750.488281 906.304688 1750.410156 906.460938 1750.335938 906.625 C 1750.320312 906.835938 1750.332031 907.046875 1750.363281 907.257812 C 1750.382812 907.378906 1750.402344 907.5 1750.425781 907.625 C 1750.457031 907.804688 1750.523438 907.96875 1750.632812 908.117188 C 1750.652344 908.15625 1750.679688 908.1875 1750.707031 908.222656 C 1750.710938 908.261719 1750.714844 908.300781 1750.722656 908.335938 C 1750.742188 908.53125 1750.785156 908.71875 1750.851562 908.902344 C 1750.953125 909.148438 1751.097656 909.367188 1751.285156 909.558594 C 1751.46875 909.75 1751.683594 909.902344 1751.910156 910.039062 C 1752.015625 910.101562 1752.121094 910.15625 1752.230469 910.207031 C 1752.257812 910.226562 1752.285156 910.246094 1752.3125 910.265625 C 1752.503906 910.378906 1752.703125 910.476562 1752.910156 910.558594 C 1753.363281 910.742188 1753.847656 910.847656 1754.328125 910.933594 C 1754.816406 911.023438 1755.308594 911.101562 1755.800781 911.167969 C 1755.839844 911.210938 1755.875 911.257812 1755.914062 911.304688 C 1755.988281 911.398438 1756.0625 911.496094 1756.140625 911.589844 C 1757.460938 913.195312 1758.953125 914.652344 1760.582031 915.9375 C 1762.109375 917.144531 1763.75 918.203125 1765.480469 919.089844 C 1766.332031 919.523438 1767.203125 919.921875 1768.089844 920.273438 C 1767.898438 920.84375 1767.714844 921.414062 1767.550781 921.992188 C 1767.457031 922.316406 1767.371094 922.640625 1767.292969 922.96875 C 1767.289062 922.976562 1767.285156 922.988281 1767.28125 922.996094 C 1767.246094 923.078125 1767.210938 923.15625 1767.175781 923.234375 C 1766.960938 923.738281 1766.800781 924.273438 1766.65625 924.800781 C 1766.53125 925.273438 1766.4375 925.742188 1766.414062 926.234375 C 1766.390625 926.738281 1766.425781 927.246094 1766.550781 927.738281 C 1766.570312 927.808594 1766.59375 927.882812 1766.613281 927.957031 C 1766.699219 928.382812 1766.839844 928.796875 1767.039062 929.179688 C 1767.242188 929.863281 1767.609375 930.484375 1768.207031 930.949219 C 1768.617188 931.273438 1769.101562 931.484375 1769.605469 931.613281 C 1769.945312 931.699219 1770.289062 931.75 1770.640625 931.761719 C 1770.832031 931.769531 1771.019531 931.765625 1771.207031 931.75 C 1771.386719 931.742188 1771.566406 931.726562 1771.746094 931.703125 C 1772.242188 931.632812 1772.738281 931.492188 1773.207031 931.304688 C 1773.273438 931.277344 1773.339844 931.246094 1773.40625 931.214844 C 1773.820312 931.0625 1774.222656 930.875 1774.605469 930.664062 C 1775.042969 930.421875 1775.457031 930.128906 1775.851562 929.820312 C 1776.03125 929.691406 1776.207031 929.558594 1776.378906 929.421875 C 1776.839844 929.050781 1777.277344 928.648438 1777.691406 928.21875 C 1778.167969 927.722656 1778.605469 927.191406 1779.027344 926.648438 C 1779.621094 925.894531 1780.191406 925.125 1780.738281 924.335938 C 1781.242188 923.601562 1781.726562 922.859375 1782.195312 922.101562 C 1782.605469 922.058594 1783.015625 922.003906 1783.421875 921.945312 C 1784.121094 922.609375 1784.820312 923.261719 1785.542969 923.894531 C 1786.347656 924.601562 1787.167969 925.292969 1788.023438 925.933594 C 1788.761719 926.484375 1789.519531 927.003906 1790.304688 927.488281 C 1791.269531 928.089844 1792.28125 928.632812 1793.335938 929.070312 C 1793.917969 929.308594 1794.515625 929.507812 1795.121094 929.675781 C 1795.398438 929.757812 1795.675781 929.839844 1795.960938 929.90625 C 1796.410156 930.015625 1796.863281 930.097656 1797.320312 930.164062 C 1797.664062 930.214844 1798.011719 930.246094 1798.359375 930.257812 C 1798.703125 930.28125 1799.050781 930.285156 1799.398438 930.265625 C 1799.960938 930.238281 1800.515625 930.171875 1801.0625 930.058594 C 1801.773438 929.9375 1802.476562 929.75 1803.15625 929.496094 C 1804.558594 928.96875 1805.84375 928.183594 1807.023438 927.265625 C 1807.222656 927.121094 1807.421875 926.972656 1807.617188 926.820312 C 1808.207031 926.359375 1808.773438 925.863281 1809.316406 925.347656 C 1809.375 925.292969 1809.433594 925.234375 1809.492188 925.179688 C 1810.058594 924.746094 1810.597656 924.277344 1811.070312 923.742188 C 1811.566406 923.179688 1811.972656 922.554688 1812.277344 921.871094 C 1812.480469 921.414062 1812.621094 920.929688 1812.707031 920.433594 C 1812.871094 919.882812 1812.96875 919.3125 1812.988281 918.738281 C 1813.007812 918.140625 1812.976562 917.535156 1812.875 916.949219 C 1812.746094 916.21875 1812.535156 915.507812 1812.257812 914.820312 C 1811.945312 914.042969 1811.511719 913.308594 1811.019531 912.632812 C 1810.804688 912.335938 1810.566406 912.050781 1810.316406 911.777344 C 1810.21875 911.667969 1810.125 911.554688 1810.023438 911.445312 C 1809.363281 910.707031 1808.621094 910.050781 1807.832031 909.453125 C 1806.464844 908.421875 1804.964844 907.554688 1803.410156 906.832031 C 1803.40625 906.808594 1803.410156 906.789062 1803.410156 906.765625 C 1803.382812 905.269531 1803.035156 903.792969 1802.53125 902.390625 C 1802.253906 901.625 1801.933594 900.875 1801.578125 900.144531 C 1802.210938 899.886719 1802.839844 899.617188 1803.460938 899.332031 C 1804.460938 898.867188 1805.4375 898.367188 1806.40625 897.847656 C 1806.675781 897.703125 1806.941406 897.554688 1807.207031 897.40625 C 1807.777344 897.199219 1808.339844 896.980469 1808.882812 896.714844 C 1809.035156 896.640625 1809.183594 896.5625 1809.332031 896.476562 C 1809.621094 896.390625 1809.902344 896.292969 1810.175781 896.167969 C 1810.621094 895.964844 1811.03125 895.714844 1811.429688 895.421875 C 1811.496094 895.375 1811.558594 895.328125 1811.621094 895.28125 C 1811.757812 895.183594 1811.886719 895.078125 1812.011719 894.972656 C 1812.066406 894.933594 1812.125 894.902344 1812.179688 894.863281 C 1812.339844 894.800781 1812.460938 894.707031 1812.550781 894.570312 C 1812.9375 894.085938 1813.152344 893.441406 1813.390625 892.886719 C 1813.382812 892.828125 1813.371094 892.769531 1813.363281 892.710938 C 1813.34375 892.671875 1813.320312 892.636719 1813.300781 892.597656 C 1813.351562 892.511719 1813.402344 892.425781 1813.453125 892.335938 C 1813.457031 892.265625 1813.453125 892.195312 1813.4375 892.132812 C 1813.488281 891.847656 1813.503906 891.558594 1813.4375 891.28125 " />
  <path fill="#AA7444" d="M 1772.492188 942.335938 C 1771.140625 942.871094 1770.863281 943.742188 1770.863281 944.859375 C 1770.882812 953.035156 1770.875 976.316406 1770.875 984.496094 C 1770.875 984.902344 1770.890625 985.308594 1770.863281 985.710938 C 1770.71875 987.847656 1769.046875 989.476562 1767 989.476562 C 1764.898438 989.480469 1763.171875 987.789062 1763.144531 985.59375 C 1763.101562 982.316406 1763.128906 963.929688 1763.128906 960.652344 C 1763.128906 955.386719 1763.125 950.125 1763.132812 944.863281 C 1763.140625 939.226562 1766.835938 935.03125 1772.441406 934.496094 C 1774.769531 934.273438 1777.128906 934.382812 1779.472656 934.375 C 1783.882812 934.359375 1788.292969 934.332031 1792.703125 934.378906 C 1797.800781 934.433594 1801.753906 937.234375 1803.003906 941.667969 C 1803.269531 942.628906 1803.402344 943.65625 1803.40625 944.65625 C 1803.4375 953.117188 1803.429688 976.683594 1803.421875 985.144531 C 1803.421875 987.707031 1801.789062 989.503906 1799.519531 989.476562 C 1797.296875 989.449219 1795.6875 987.675781 1795.683594 985.1875 C 1795.675781 976.804688 1795.671875 953.320312 1795.691406 944.941406 C 1795.695312 943.789062 1795.441406 942.875 1794.070312 942.332031 L 1794.070312 943.964844 C 1794.070312 967.285156 1794.070312 966.988281 1794.058594 990.308594 C 1794.058594 991.1875 1794.039062 992.109375 1793.796875 992.945312 C 1793.148438 995.203125 1790.863281 996.671875 1788.578125 996.429688 C 1786.105469 996.164062 1784.21875 994.1875 1784.042969 991.65625 C 1784.007812 991.214844 1784.027344 990.765625 1784.027344 990.320312 C 1784.023438 978.175781 1784.027344 989.648438 1784.027344 977.5 L 1784.027344 975.980469 L 1782.53125 975.980469 L 1782.53125 977.421875 C 1782.53125 989.808594 1782.535156 978.578125 1782.527344 990.96875 C 1782.523438 993.78125 1781.046875 995.738281 1778.53125 996.316406 C 1775.78125 996.949219 1772.9375 995 1772.574219 992.199219 C 1772.488281 991.523438 1772.496094 990.828125 1772.496094 990.140625 C 1772.492188 966.863281 1772.492188 967.199219 1772.492188 943.921875 Z M 1772.492188 942.335938 " />
</svg>