<svg xmlns="http://www.w3.org/2000/svg" viewBox="580 400 760 390" fill="#AA7444">
  <path d="M735.285 457.898v46.329H673.56l11.191 25.48 16.512 32.328 34.023-36.633v244.532L599.203 457.898ZM813.215 707.988h-53.863v-250.09h170.453l-108.887 108.88 66.437 99.507 14.739 22.082-44.63 30.012-14.964-22.406-29.285-43.856Zm0 0"/>
  <path d="M956.344 590.254v1.926l1.156-1.926ZM902.48 457.902h170.446l-78.492 78.489h63.87L902.48 769.938Zm0 0"/>
  <path d="M1096.008 707.988h-53.863v-250.09h170.453l-108.887 108.88 66.437 99.507 14.739 22.082-44.63 30.012-14.964-22.406-29.285-43.856Zm0 0"/>
  <path d="m1247.988 596.027 10.004-30.78-10.004-20.009-10.004 20.008Zm68.485-34.629-68.485 204.692-68.484-204.692 68.484-136.972Zm0 0"/>
</svg>
